HIERARCHY
ROOT HipCenter
{
    OFFSET 0.0 0.0 -0.0
    CHANNELS 6 Xposition Yposition Zposition Zrotation Xrotation Yrotation
    JOINT Spine
    {
        OFFSET 0.0 33.98420715332031 0.0
        CHANNELS 3 Zrotation Xrotation Yrotation
        JOINT ShoulderCenter
        {
            OFFSET 0.0 24.870206832885742 0.0
            CHANNELS 3 Zrotation Xrotation Yrotation
            JOINT LeftShoulder
            {
                OFFSET 19.298145294189453 0.0 0.0
                CHANNELS 3 Zrotation Xrotation Yrotation
                JOINT LeftElbow
                {
                    OFFSET 27.623592376708984 0.0 0.0
                    CHANNELS 3 Zrotation Xrotation Yrotation
                    JOINT LeftWrist
                    {
                        OFFSET 25.585742950439453 0.0 0.0
                        CHANNELS 3 Zrotation Xrotation Yrotation
                        JOINT LeftHand
                        {
                            OFFSET 7.367735862731934 0.0 0.0
                            CHANNELS 3 Zrotation Xrotation Yrotation
                            End Site
                            {
                                OFFSET 2.947094440460205 0.0 0.0
                            }
                        }
                    }
                }
            }
            JOINT RightShoulder
            {
                OFFSET -19.298145294189453 0.0 0.0
                CHANNELS 3 Zrotation Xrotation Yrotation
                JOINT RightElbow
                {
                    OFFSET -27.623592376708984 0.0 0.0
                    CHANNELS 3 Zrotation Xrotation Yrotation
                    JOINT RightWrist
                    {
                        OFFSET -25.585742950439453 0.0 0.0
                        CHANNELS 3 Zrotation Xrotation Yrotation
                        JOINT RightHand
                        {
                            OFFSET -7.367735862731934 0.0 0.0
                            CHANNELS 3 Zrotation Xrotation Yrotation
                            End Site
                            {
                                OFFSET -2.947094440460205 0.0 0.0
                            }
                        }
                    }
                }
            }
            End Site
            {
                OFFSET 0.0 9.948084831237793 0.0
            }
        }
    }
    JOINT LeftHip
    {
        OFFSET 8.296052932739258 0.0 0.0
        CHANNELS 3 Zrotation Xrotation Yrotation
        JOINT LeftKnee
        {
            OFFSET 0.0 -41.35143280029297 0.0
            CHANNELS 3 Zrotation Xrotation Yrotation
            JOINT LeftAnkle
            {
                OFFSET 0.0 -35.24994659423828 0.0
                CHANNELS 3 Zrotation Xrotation Yrotation
                JOINT LeftFoot
                {
                    OFFSET 0.0 -10.508512496948242 0.0
                    CHANNELS 3 Zrotation Xrotation Yrotation
                    End Site
                    {
                        OFFSET 0.0 0.0 4.203405380249023
                    }
                }
            }
        }
    }
    JOINT RightHip
    {
        OFFSET -8.296052932739258 0.0 0.0
        CHANNELS 3 Zrotation Xrotation Yrotation
        JOINT RightKnee
        {
            OFFSET 0.0 -41.35143280029297 0.0
            CHANNELS 3 Zrotation Xrotation Yrotation
            JOINT RightAnkle
            {
                OFFSET 0.0 -35.24994659423828 0.0
                CHANNELS 3 Zrotation Xrotation Yrotation
                JOINT RightFoot
                {
                    OFFSET 0.0 -10.508512496948242 0.0
                    CHANNELS 3 Zrotation Xrotation Yrotation
                    End Site
                    {
                        OFFSET 0.0 0.0 4.203405380249023
                    }
                }
            }
        }
    }
}
MOTION
Frames: 9
Frame Time: 0.03333333333333333
43.77280044555664 -0.12549999356269836 -267.103515625 14.913430452105548 11.766005461018286 132.72118499226923 1.6602676232120932 -0.8896442415044078 0.10758797218202276 8.755643557121434e-07 -8.196002115506389e-07 -4.172504430305036 -22.077954199183242 -45.193017231722784 86.6060529656871 3.304702472325896e-07 -3.972088329658483e-06 76.01389806419638 9.576360467285551e-07 -73.95238977747731 89.90653426048955 7.951386703658792e-16 -1.9878466759146985e-16 -3.429035515952854e-15 62.63740108428133 -40.55051095294936 0.5064639156294427 7.700122432222013e-07 -6.306953551313734e-07 -101.9814915257614 -1.099540665822592e-06 -62.08910154145026 -34.30505904238799 -1.7655625192200634e-31 -3.1805546814635164e-15 -6.361109362927033e-15 3.6842941226966395 26.92842016956207 28.04690280002687 -4.823480427365439 -10.051607736592088 1.4825382072016702 30.400771264334868 54.36263122530052 -33.07337225348078 -1.590277340731758e-15 2.2069531490250793e-32 -1.590277340731758e-15 -6.9530046259699345 7.2331698177428825 -16.95284403888513 14.395812772798374 -4.157283598163403 1.1156341967680488 -68.98722295783477 22.882439601058493 28.14803904097297 -3.1805546814635168e-15 8.827812596100317e-32 -3.1805546814635168e-15
43.71820068359375 0.19300000369548798 -266.99560546875 13.917694878371242 11.352261261954887 136.92340103934583 1.9149437269294813 -0.21725000533275587 0.021458832582202 6.410132215816639e-07 -1.398914719831779e-07 1.72120401713734 -67.89009923973482 -43.69201103524173 8.13261007295024 -3.041517917835378e-06 3.6596799171595172e-06 104.53084408960747 179.99999761433972 -60.74962269953955 -149.02683497918468 1.2138242319637935e-31 1.5902773407317584e-15 -8.74652537402467e-15 56.23070219542218 -45.870204109374775 -8.902716584756556 2.0814120727443715e-06 -1.8612107388015975e-06 -94.74905769805189 -3.314407086760775e-06 33.9927378495706 -38.43824637899557 1.5902773407317584e-15 -6.3362612794781e-15 8.7933289531468e-32 4.948314912927878 26.283185935236077 29.186935645719178 -6.8530082743646386 -11.99849570960121 1.011692260010105 37.33777220406158 53.0020077819498 -35.803266556706916 -1.5902773407317582e-15 0.0 0.0 -5.989876940639908 6.6845277649535575 -18.7420077291868 13.770976563045496 -4.16797552045362 1.118216095378579 -67.28643308314278 23.75930706199361 27.527745147718537 3.1805546814635164e-15 -4.4139062980501586e-32 -1.5902773407317582e-15
43.556400299072266 0.8178000450134277 -266.43670654296875 12.6249329363564 10.5996958649532 143.16303959827425 2.232297641935994 -0.31903547124661313 0.019422728416945825 1.0003202265174788e-07 -1.0488244736069486e-06 -0.7181612551822918 -72.40714875446069 -44.7958508367037 5.184114618493626 -2.1385768643192197e-06 -2.8085419776680667e-06 91.96963351003855 -1.2370314150557802e-07 -41.96260853391108 15.555264837671885 3.1805546814635168e-15 -2.2069531490250793e-31 -7.951386703658792e-15 58.227814313630006 -38.891241526667635 -4.944041831324306 -3.0651242982626017e-06 1.7312120775541486e-06 -96.36197259686593 -1.1293930482744593e-06 -22.94671282430342 -22.050455370603533 0.0 0.0 0.0 6.947213346516811 23.91955283037065 30.40169709668395 -8.741202652330061 -12.489481955301736 0.3975927396599669 43.816827215975714 49.37782262315523 -37.78958724388907 0.0 0.0 0.0 -4.674226175720843 5.580848595910489 -21.586885300828044 12.282199407762127 -3.929923760820257 0.9179923291394897 -67.6634763674471 23.362361948766537 29.10366724362305 3.1805546814635164e-15 -2.648343778830095e-31 -9.541664044390549e-15
43.29059982299805 1.187600016593933 -266.2259216308594 10.852160887292793 10.018621543910957 147.70501590706405 2.8387356704644953 0.37706079836082684 -0.020400967995004102 4.144196723160931e-07 -5.577415844375465e-07 2.102618093956993 -62.41453645394349 -63.19896205835112 20.868873650508778 7.555975993638601e-07 -8.879730615105747e-07 72.2605079766398 -179.99999835434454 -78.7772994046281 -145.3461260172873 4.138037154422024e-33 3.9756933518293955e-16 -1.1927080055488186e-15 55.52969381584138 -41.82011466086983 -9.782130263890348 -3.1248873905601866e-06 -2.5369035673726624e-06 -93.83776383304959 1.081316737596004e-06 -53.26322961216374 -28.06482414110321 1.0689929315590228e-32 3.0811623476677818e-15 -3.975693351829396e-16 6.719751946149072 21.99419347984857 30.081626766635097 -9.54791520766558 -13.469299453662416 -0.07517757301209711 47.35686787916601 47.510304495227516 -38.37760625492301 -7.951386703658792e-16 0.0 0.0 -4.420073413302949 3.8496235646659027 -23.18568097837702 10.187692730702786 -3.7887319014369507 0.7307934593312532 -65.49453297214744 25.772830790950106 31.452834667745936 0.0 6.361109362927033e-15 0.0
43.26810073852539 1.4603999853134155 -265.77288818359375 8.715925786137404 8.896600598568556 154.22767882089846 2.383561766044964 0.3561633462059946 -0.01310007093868299 3.0370614630851376e-07 -6.237721822771901e-07 0.7872332958153189 -71.30300979618809 -44.45231956588005 11.696972495555274 -1.9516243706402876e-06 4.5566704421555684e-07 74.3549744789484 -9.255001784181966e-06 -62.754887798298945 63.27269917649368 0.0 0.0 1.9878466759146984e-15 56.95416999565986 -41.90628564804974 -7.592200722181588 -9.441778068738782e-07 4.153974549104612e-06 -96.03494121130564 2.55325131188952e-06 -61.549567352872245 -21.416967684228723 0.0 -3.1805546814635168e-15 0.0 7.466382485970213 19.751775684573502 30.523943981001786 -12.013121207255095 -14.912066211213066 -0.6771171064595256 51.48537526755381 43.55257684190565 -38.34669883599144 -3.975693351829396e-16 1.1034765745125397e-32 -3.1805546814635168e-15 -4.283764796026194 1.7819851558724578 -25.669245661359703 8.240763139897373 -3.7057898698470346 0.5940876354283579 -64.26218475790532 28.051812203492606 34.050843288882845 1.5902773407317584e-15 -2.2069531490250793e-32 -1.5902773407317584e-15
43.266300201416016 1.5819000005722046 -265.4381103515625 7.1789145620327455 7.944430306716458 159.70714578196734 2.009736436460603 0.1627645819947167 -0.0035528931555560157 3.36099315969518e-07 -6.338861321733887e-07 3.348040824561917 -67.0761670407854 -45.46596382176553 13.4151755072822 2.6239168920091787e-06 2.623590423666303e-06 71.8795635769113 1.0457167463961936e-05 -69.52154863087875 74.08352633800611 0.0 0.0 2.484808344893372e-16 54.48749638309445 -44.01360558969332 -11.145441917349906 -1.6457353589969077e-06 -2.1629982112578193e-06 -97.32039085013247 -2.6160151632515235e-06 7.365514328624711 -11.626320709451273 0.0 6.3611093629270335e-15 0.0 7.767828658319625 17.54787799545802 30.060247420147917 -13.40555411450397 -15.554919819824244 -1.1894889299041127 55.977648593818294 41.05580782445449 -39.761187575602136 -1.3914926731402886e-15 0.0 0.0 -4.279249331499999 0.2930816005671547 -27.223764966099314 6.386857066439859 -3.5590473425679985 0.4409494503755328 -61.46866297182383 30.085697978315675 35.01468964778602 0.0 -6.361109362927033e-15 0.0
43.41250228881836 1.7467999458312988 -265.0613098144531 5.603643499174039 6.8798173955048165 166.28172048299268 1.522794777585038 -0.16677763172220506 0.0010329299760669071 -2.0211658951238167e-07 9.222479592907996e-07 4.562197054333218 -65.63708463468484 -45.30032266494037 11.296835455188388 5.1396860535199616e-06 -1.032948259764772e-06 74.79977101550473 1.7989846083360776e-05 -73.60596459005258 74.57372332682944 7.951386703658792e-16 -2.758691436281349e-32 -3.975693351829396e-15 55.42410645596977 -40.32205422292098 -17.107818656715526 1.0208025910379738e-06 1.4871229211705005e-06 -89.61988216422448 -2.3726750036201363e-06 -46.684185988083556 -31.45392113664122 1.6151254241806922e-16 -3.8524694862132126e-34 -2.7332891793827095e-16 8.451423501155984 14.756025161871769 29.45463728610919 -15.077488946737068 -14.982338016262982 -1.6821332852469282 59.5120362059172 37.26791562567409 -39.041747565434264 6.957463365701443e-16 -6.3611093629270335e-15 3.862168010793889e-32 -4.525074088821585 -0.7137516336352516 -28.67065485325995 4.749690122280841 -3.926143573680319 0.3361349516297702 -60.436005061475335 34.014686571898395 39.19631464250061 3.1805546814635164e-15 4.4139062980501586e-32 1.5902773407317582e-15
43.599700927734375 1.868399977684021 -264.7333984375 4.901199210579124 5.939787793846403 173.05598274935033 1.060167161793447 -0.5480449910945271 -0.013595461112811649 6.207282501238328e-08 -4.339642266730692e-07 5.282717264869647 -61.865481323694404 -47.83084958244894 15.16027658137929 1.2397403187811549e-06 -1.801678181706372e-06 81.52257581719384 9.593676800099803e-07 -14.304917152586443 31.157080282327776 -6.3611093629270335e-15 -6.3611093629270335e-15 -3.531125038440127e-31 54.256456163623454 -42.871431930354674 -12.852512930334422 -5.743463868816352e-06 1.025287111382828e-06 -98.31331855707678 -9.865446530026054e-07 28.131283489831763 -12.544659774515964 3.1805546814635168e-15 -7.951386703658792e-15 2.2069531490250793e-31 9.351571325264736 12.184636960940965 28.62957269704522 -16.3094347164989 -14.535667847480394 -2.190432365237062 62.27876192969416 33.221862595638434 -36.91187448883119 7.951386703658792e-16 -6.3611093629270335e-15 4.4139062980501586e-32 -4.53349683356085 -0.6753936747478624 -30.141248637923635 4.032244975463907 -4.8857945065906465 0.22653892475493087 -57.09738781491912 37.08452072210178 40.15689614356481 0.0 0.0 4.770832022195275e-15
44.10890197753906 2.0785000324249268 -264.4418029785156 4.383152851211823 4.9668962827166 -178.96409138648147 0.3071482417446224 -1.0167695377287351 -0.06377434291744742 -9.187041834152207e-08 3.5480119684127786e-07 6.386511218914431 -64.47936946448863 -44.24868468672358 7.712377827469808 1.7110253463783839e-07 3.3503636139034557e-06 86.22266072565411 -1.0449756415225965e-06 -16.902927772780895 24.652485030571853 -5.517382872562698e-33 3.975693351829396e-16 1.5902773407317584e-15 49.026180847526334 -46.93647546368056 -24.655193180920882 5.418601135567603e-06 -5.076887589422733e-07 -91.97798452032978 -1.1423097459908388e-05 79.73542565517397 -11.813802491125788 3.1805546814635168e-15 1.7655625192200634e-31 6.3611093629270335e-15 10.285091752698223 8.893128592298991 26.576958037388266 -15.540102910665423 -14.189674189221282 -2.2562290398489933 60.811867999826966 31.597955050824346 -33.810812603717025 -7.951386703658791e-16 0.0 0.0 -3.9204383755857224 -0.22757107434534002 -30.241855366958134 2.432078074478207 -6.269151315319687 -0.06251924137060243 -53.21476012645819 42.99645547050588 42.960268179394774 -1.5902773407317584e-15 -2.2069531490250793e-32 1.5902773407317584e-15
